<svg xmlns="http://www.w3.org/2000/svg" version="1.1" xmlns:xlink="http://www.w3.org/1999/xlink" xmlns:svgjs="http://svgjs.dev/svgjs" width="1920" height="1080" preserveAspectRatio="none" viewBox="0 0 1920 1080"><g mask="url(&quot;#SvgjsMask1040&quot;)" fill="none"><rect width="1920" height="1080" x="0" y="0" fill="rgba(19, 26, 20, 1)"></rect><path d="M841.94 1185.12C1077.32 1136.97 1176.54 534.66 1544.63 529.57 1912.73 524.48 2063.56 743.15 2247.33 745.57" stroke="rgba(23, 103, 32, 1)" stroke-width="2"></path><path d="M892.82 1189.93C1056.04 1125.06 907.19 691.52 1310.72 625.18 1714.26 558.84 1905.44 156.42 2146.53 139.18" stroke="rgba(23, 103, 32, 1)" stroke-width="2"></path><path d="M926.15 1174.12C1101.43 1052.97 930.67 484.8 1310.9 413.58 1691.13 342.36 1876.56 147.46 2080.4 143.58" stroke="rgba(23, 103, 32, 1)" stroke-width="2"></path><path d="M612.65 1190.53C761.44 1183.19 876.93 923.66 1145.3 923.41 1413.67 923.16 1411.62 1058.41 1677.95 1058.41 1944.27 1058.41 2073.23 924.46 2210.6 923.41" stroke="rgba(23, 103, 32, 1)" stroke-width="2"></path><path d="M413.34 1204.28C587 1181.33 683.53 783.6 971.95 781.3 1260.38 779 1251.26 916.3 1530.57 916.3 1809.87 916.3 1945.51 782.25 2089.18 781.3" stroke="rgba(23, 103, 32, 1)" stroke-width="2"></path></g><defs><mask id="SvgjsMask1040"><rect width="1920" height="1080" fill="#ffffff"></rect></mask></defs></svg>